<?xml version="1.0" standalone="no"?>
<!DOCTYPE svg PUBLIC "-//W3C//DTD SVG 20010904//EN"
 "http://www.w3.org/TR/2001/REC-SVG-20010904/DTD/svg10.dtd">
<svg version="1.0" xmlns="http://www.w3.org/2000/svg"
 width="700.000000pt" height="700.000000pt" viewBox="0 0 700.000000 700.000000"
 preserveAspectRatio="xMidYMid meet">
<metadata>
Created by potrace 1.14, written by Peter Selinger 2001-2017
</metadata>
<g transform="translate(0.000000,700.000000) scale(0.100000,-0.100000)"
fill="#000000" stroke="none">
<path d="M3299 6776 c-2 -2 -38 -7 -79 -10 -229 -20 -521 -97 -690 -181 l-45
-22 -1045 0 c-959 0 -1048 -2 -1085 -17 -53 -23 -93 -62 -117 -114 -19 -42
-19 -86 -20 -2056 0 -1844 2 -2016 17 -2052 20 -49 59 -90 110 -117 38 -19 55
-21 335 -21 162 0 297 -3 300 -7 3 -4 5 -105 5 -226 l-1 -218 -27 -27 c-15
-15 -27 -36 -27 -48 0 -30 -24 -35 -57 -11 -15 12 -42 25 -59 30 -87 25 -227
-95 -209 -179 8 -35 -11 -78 -28 -61 -22 22 -73 12 -121 -24 -76 -59 -96 -115
-71 -200 8 -29 15 -55 15 -57 0 -2 -15 -2 -33 0 -82 9 -130 -93 -104 -221 6
-29 76 -163 109 -207 18 -25 18 -26 -7 -78 -36 -74 -55 -163 -55 -257 0 -87
17 -129 63 -160 22 -14 320 -15 3121 -15 1704 0 3102 2 3106 5 10 6 4 55 -17
123 -14 46 -14 56 -2 80 8 15 17 29 20 32 17 13 91 168 103 213 32 126 -22
237 -108 221 -30 -5 -31 -1 -12 52 28 80 3 152 -73 206 -46 33 -83 43 -109 29
-27 -15 -46 9 -37 47 8 37 -9 79 -48 120 -76 80 -166 93 -226 33 -25 -25 -51
-17 -51 13 0 12 -6 28 -12 34 -16 16 -19 740 -3 750 5 4 141 7 300 8 274 1
292 2 331 22 47 24 90 71 111 120 11 27 13 366 13 2038 0 1315 -3 2018 -10
2043 -14 53 -72 116 -126 137 -42 16 -123 17 -1087 17 -1015 0 -1043 0 -1081
19 -148 75 -405 148 -602 173 -27 4 -60 9 -74 12 -29 6 -495 15 -501 9z"/>
</g>
</svg>
